<?xml version="1.0" standalone="no"?>
<!DOCTYPE svg PUBLIC "-//W3C//DTD SVG 20010904//EN"
 "http://www.w3.org/TR/2001/REC-SVG-20010904/DTD/svg10.dtd">
<svg version="1.0" xmlns="http://www.w3.org/2000/svg"
 width="500.000000pt" height="500.000000pt" viewBox="0 0 500.000000 500.000000"
 preserveAspectRatio="xMidYMid meet">

<g transform="translate(0.000000,500.000000) scale(0.100000,-0.100000)"
fill="#000000" stroke="none">
<path d="M3315 4525 c-44 -18 -115 -41 -157 -52 -92 -21 -86 2 -58 -233 27
-232 66 -671 85 -960 8 -135 18 -269 21 -297 l5 -53 38 0 c21 0 52 3 69 6 36
7 33 -18 57 414 16 282 51 727 80 999 15 143 14 162 -13 194 -20 22 -32 21
-127 -18z"/>
<path d="M1398 4285 l-28 -16 0 -878 0 -879 44 -11 c115 -29 397 -40 434 -17
9 5 12 159 12 686 l0 680 79 39 c100 51 190 81 240 81 36 0 40 -3 51 -34 24
-73 30 -232 30 -813 0 -563 1 -603 18 -611 53 -29 402 -51 455 -30 16 7 17 46
17 630 0 360 -4 658 -10 704 -36 285 -136 420 -347 470 -142 33 -266 3 -458
-111 -55 -33 -104 -60 -108 -60 -5 0 -25 32 -45 70 -50 96 -77 108 -237 112
-94 3 -126 0 -147 -12z"/>
<path d="M3192 2479 c-84 -42 -122 -144 -87 -235 54 -142 307 -133 356 13 17
52 7 134 -20 169 -58 74 -161 96 -249 53z"/>
</g>
</svg>
